<?xml version="1.0" standalone="no"?>
<!DOCTYPE svg PUBLIC "-//W3C//DTD SVG 20010904//EN"
 "http://www.w3.org/TR/2001/REC-SVG-20010904/DTD/svg10.dtd">
<svg version="1.0" xmlns="http://www.w3.org/2000/svg"
 width="1920.000000pt" height="1920.000000pt" viewBox="0 0 1920.000000 1920.000000"
 preserveAspectRatio="xMidYMid meet">
<metadata>
Created by potrace 1.11, written by Peter Selinger 2001-2013
</metadata>
<g transform="translate(0.000000,1920.000000) scale(0.100000,-0.100000)"
fill="#000000" stroke="none">
<path d="M0 9600 l0 -9600 9600 0 9600 0 0 9600 0 9600 -9600 0 -9600 0 0
-9600z m6498 5491 c20 -11 83 -53 139 -93 105 -75 299 -212 564 -398 83 -58
225 -158 317 -223 92 -64 237 -166 322 -226 85 -60 221 -155 303 -212 81 -57
198 -140 260 -184 62 -44 132 -93 157 -109 24 -16 49 -33 54 -38 6 -5 60 -43
120 -86 184 -130 268 -256 316 -474 17 -76 19 -141 19 -820 1 -446 5 -747 11
-763 11 -29 50 -34 70 -10 9 10 32 15 77 15 35 0 73 5 83 10 10 6 58 15 107
20 48 6 113 15 143 20 82 15 608 15 720 1 200 -26 318 -46 445 -78 137 -34
136 -33 275 -77 30 -10 64 -21 75 -25 11 -5 76 -30 145 -57 172 -67 488 -226
645 -325 244 -154 301 -202 655 -549 184 -180 381 -436 490 -635 18 -33 43
-76 54 -95 12 -19 30 -53 40 -75 11 -22 27 -56 37 -75 58 -117 173 -422 198
-525 5 -22 17 -67 26 -100 63 -225 112 -550 130 -865 6 -116 -15 -488 -35
-620 -31 -194 -54 -301 -102 -475 -21 -75 -89 -280 -103 -312 -8 -17 -15 -35
-15 -40 0 -5 -11 -34 -26 -64 -14 -30 -31 -67 -39 -84 -66 -146 -147 -300
-194 -370 -17 -25 -31 -48 -31 -50 0 -13 -204 -302 -263 -372 -82 -98 -149
-170 -278 -301 -111 -113 -140 -139 -355 -308 -70 -56 -270 -191 -330 -224
-22 -12 -54 -30 -72 -41 -91 -53 -287 -148 -412 -199 -30 -12 -64 -26 -75 -30
-37 -16 -260 -89 -300 -99 -22 -5 -74 -18 -115 -29 -418 -110 -955 -137 -1390
-71 -117 17 -314 57 -395 79 -124 34 -297 89 -350 110 -16 7 -39 16 -50 21
-11 4 -56 22 -100 40 -199 80 -497 248 -690 388 -313 228 -665 580 -837 839
-18 26 -34 49 -38 52 -5 4 -49 70 -75 111 -11 18 -39 65 -91 154 -56 97 -137
261 -188 385 -26 63 -51 124 -56 135 -9 22 -66 192 -79 240 -42 144 -64 237
-85 355 -8 47 -19 112 -25 146 -34 189 -41 449 -50 1945 -23 3312 -33 5224
-29 5409 3 182 5 198 27 240 50 96 161 136 249 91z"/>
<path d="M9695 9169 c-22 -5 -58 -12 -80 -15 -22 -3 -57 -12 -78 -20 -20 -8
-49 -14 -62 -14 -14 0 -25 -4 -25 -10 0 -5 -11 -10 -24 -10 -14 0 -31 -7 -40
-15 -8 -8 -22 -15 -31 -15 -9 0 -23 -7 -31 -15 -9 -8 -24 -15 -35 -15 -10 0
-19 -4 -19 -10 0 -5 -8 -10 -19 -10 -10 0 -24 -7 -31 -15 -7 -8 -21 -15 -31
-15 -11 0 -19 -4 -19 -9 0 -6 -13 -18 -29 -27 -16 -10 -34 -29 -41 -43 -8 -19
-10 -265 -5 -971 3 -520 8 -955 11 -967 8 -42 221 -165 374 -216 155 -52 215
-61 395 -61 130 0 189 4 250 18 271 62 469 176 662 380 156 165 264 378 310
611 21 109 21 327 0 430 -63 305 -151 473 -356 676 -192 191 -392 296 -661
349 -79 16 -330 21 -385 9z"/>
</g>
</svg>
